<svg version="1.2" baseProfile="tiny-ps" xmlns="http://www.w3.org/2000/svg" viewBox="0 0 24 24" width="24" height="24">
	<title>gitfork_120084-svg</title>
	<style>
		tspan { white-space:pre }
		.shp0 { fill: #ffffff } 
	</style>
	<path id="Layer" fill-rule="evenodd" class="shp0" d="M7 12L14.5 12C16.28 12 17.74 10.68 17.97 8.96C16.29 8.7 15 7.25 15 5.5C15 3.57 16.57 2 18.5 2C20.43 2 22 3.57 22 5.5C22 7.27 20.68 8.74 18.98 8.97C18.74 11.23 16.83 13 14.5 13L7 13L7 15.04C8.7 15.28 10 16.74 10 18.5C10 20.43 8.43 22 6.5 22C4.57 22 3 20.43 3 18.5C3 16.74 4.3 15.28 6 15.04L6 8.96C4.3 8.72 3 7.26 3 5.5C3 3.57 4.57 2 6.5 2C8.43 2 10 3.57 10 5.5C10 7.26 8.7 8.72 7 8.96L7 12ZM4 18.5C4 19.88 5.12 21 6.5 21C7.88 21 9 19.88 9 18.5C9 17.12 7.88 16 6.5 16C5.12 16 4 17.12 4 18.5ZM4 5.5C4 6.88 5.12 8 6.5 8C7.88 8 9 6.88 9 5.5C9 4.12 7.88 3 6.5 3C5.12 3 4 4.12 4 5.5ZM18.5 3C17.12 3 16 4.12 16 5.5C16 6.88 17.12 8 18.5 8C19.88 8 21 6.88 21 5.5C21 4.12 19.88 3 18.5 3Z" />
</svg>